<?xml version="1.0" encoding="utf-8"?>
<!-- Generator: Adobe Illustrator 28.4.1, SVG Export Plug-In . SVG Version: 6.00 Build 0)  -->
<svg version="1.1" id="Layer_1" xmlns="http://www.w3.org/2000/svg" xmlns:xlink="http://www.w3.org/1999/xlink" x="0px" y="0px"
	 viewBox="0 0 28 28" style="enable-background:new 0 0 28 28;" xml:space="preserve">
<style type="text/css">
	.st0{fill:url(#SVGID_1_);}
	.st1{fill:#A38B00;}
	.st2{fill:#BCAE00;}
	.st3{fill:#FFFFFF;}
	.st4{fill:url(#SVGID_00000142171410175424348660000004059276818329092480_);}
	.st5{fill:#00BFF2;}
	.st6{fill:url(#SVGID_00000067224706880100874120000017289618196005135240_);}
	.st7{fill-rule:evenodd;clip-rule:evenodd;fill:url(#SVGID_00000181810134118619659220000009294615862926540416_);}
	.st8{fill-rule:evenodd;clip-rule:evenodd;fill:#FFFFFF;}
	.st9{fill:url(#SVGID_00000030480476859722678070000000982565032509330338_);}
	.st10{fill:#323330;}
	.st11{fill:url(#SVGID_00000175296010809357653010000017684952829457596561_);}
	.st12{fill:#A5F3FC;}
</style>
<g>
	<g>
		<linearGradient id="SVGID_1_" gradientUnits="userSpaceOnUse" x1="4.1005" y1="23.8995" x2="23.8995" y2="4.1005">
			<stop  offset="0" style="stop-color:#A3BF00"/>
			<stop  offset="1" style="stop-color:#000000"/>
		</linearGradient>
		<circle class="st0" cx="14" cy="14" r="14"/>
	</g>
	<path class="st1" d="M7.8,20.74L6.55,5.5l14.89,0.03l-1.32,15.21l-6.07,1.76L7.8,20.74z"/>
	<path class="st2" d="M14.06,21.03V6.95l6.13,0.02L19.1,19.57L14.06,21.03z"/>
	<g>
		<path class="st3" d="M13.4,8.62h-1.62v9.37l-1.26-0.24v-1.26l-1.5-0.24v2.82l4.38,1.14V8.62z M14.62,8.62h4.49l-0.3,1.8h-2.48
			v2.95h2.48l-0.3,5.95l-3.89,0.9v-1.86l2.63-0.9l0.15-2.46l-2.78,0.4V8.62z"/>
	</g>
</g>
</svg>
