<?xml version="1.0" encoding="utf-8"?>
<!-- Generator: Adobe Illustrator 28.4.1, SVG Export Plug-In . SVG Version: 6.00 Build 0)  -->
<svg version="1.1" id="Layer_1" xmlns="http://www.w3.org/2000/svg" xmlns:xlink="http://www.w3.org/1999/xlink" x="0px" y="0px"
	 viewBox="0 0 28 28" style="enable-background:new 0 0 28 28;" xml:space="preserve">
<style type="text/css">
	.st0{fill:url(#SVGID_1_);}
	.st1{fill:#A38B00;}
	.st2{fill:#BCAE00;}
	.st3{fill:#FFFFFF;}
	.st4{fill:url(#SVGID_00000167371120451861689290000015723093890872897446_);}
	.st5{fill:#00BFF2;}
	.st6{fill:url(#SVGID_00000180350609528824541200000003437853418633427856_);}
	.st7{fill-rule:evenodd;clip-rule:evenodd;fill:url(#SVGID_00000094602691235741111810000010284654088446519712_);}
	.st8{fill-rule:evenodd;clip-rule:evenodd;fill:#FFFFFF;}
	.st9{fill:url(#SVGID_00000182518722842217731230000009760195769989677244_);}
	.st10{fill:#323330;}
	.st11{fill:url(#SVGID_00000148654322740215899260000011189613673335672253_);}
	.st12{fill:#A5F3FC;}
</style>
<g>
	<g>
		<linearGradient id="SVGID_1_" gradientUnits="userSpaceOnUse" x1="4.1005" y1="23.8995" x2="23.8995" y2="4.1005">
			<stop  offset="0" style="stop-color:#F0DB4F"/>
			<stop  offset="1" style="stop-color:#754C24"/>
		</linearGradient>
		<circle class="st0" cx="14" cy="14" r="14"/>
	</g>
	<g>
		<path class="st10" d="M14,22.5c-0.23,0-0.45-0.06-0.66-0.17l-2.08-1.23c-0.31-0.17-0.16-0.23-0.06-0.27
			c0.42-0.14,0.5-0.17,0.94-0.42c0.05-0.03,0.11-0.02,0.16,0.02l1.59,0.95c0.06,0.03,0.14,0.03,0.19,0l6.23-3.61
			c0.06-0.03,0.09-0.09,0.09-0.17v-7.2c0-0.08-0.03-0.14-0.09-0.17l-6.23-3.59c-0.06-0.03-0.14-0.03-0.19,0l-6.23,3.59
			c-0.06,0.03-0.09,0.11-0.09,0.17v7.2c0,0.06,0.03,0.14,0.09,0.17l1.7,0.98c0.92,0.47,1.5-0.08,1.5-0.62v-7.11
			c0-0.09,0.08-0.19,0.19-0.19h0.8c0.09,0,0.19,0.08,0.19,0.19v7.11c0,1.23-0.67,1.95-1.84,1.95c-0.36,0-0.64,0-1.44-0.39
			l-1.64-0.94c-0.41-0.23-0.66-0.67-0.66-1.14v-7.2c0-0.47,0.25-0.91,0.66-1.14l6.23-3.61c0.39-0.22,0.92-0.22,1.31,0l6.23,3.61
			c0.41,0.23,0.66,0.67,0.66,1.14v7.2c0,0.47-0.25,0.91-0.66,1.14l-6.23,3.61C14.45,22.45,14.22,22.5,14,22.5L14,22.5z M15.92,17.55
			c-2.73,0-3.3-1.25-3.3-2.31c0-0.09,0.08-0.19,0.19-0.19h0.81c0.09,0,0.17,0.06,0.17,0.16c0.12,0.83,0.48,1.23,2.14,1.23
			c1.31,0,1.87-0.3,1.87-1c0-0.41-0.16-0.7-2.2-0.91c-1.7-0.17-2.76-0.55-2.76-1.91c0-1.27,1.06-2.01,2.84-2.01
			c2,0,2.98,0.69,3.11,2.19c0,0.05-0.02,0.09-0.05,0.14C18.72,12.97,18.67,13,18.62,13h-0.81c-0.08,0-0.16-0.06-0.17-0.14
			c-0.19-0.86-0.67-1.14-1.95-1.14c-1.44,0-1.61,0.5-1.61,0.87c0,0.45,0.2,0.59,2.14,0.84c1.92,0.25,2.83,0.61,2.83,1.95
			C19.03,16.77,17.9,17.55,15.92,17.55L15.92,17.55z"/>
	</g>
</g>
</svg>
