<?xml version="1.0" encoding="utf-8"?>
<!-- Generator: Adobe Illustrator 28.4.1, SVG Export Plug-In . SVG Version: 6.00 Build 0)  -->
<svg version="1.1" id="Layer_1" xmlns="http://www.w3.org/2000/svg" xmlns:xlink="http://www.w3.org/1999/xlink" x="0px" y="0px"
	 viewBox="0 0 28 28" style="enable-background:new 0 0 28 28;" xml:space="preserve">
<style type="text/css">
	.st0{fill:url(#SVGID_1_);}
	.st1{fill:#A38B00;}
	.st2{fill:#BCAE00;}
	.st3{fill:#FFFFFF;}
	.st4{fill:url(#SVGID_00000021823463445206337180000018063330750062809782_);}
	.st5{fill:#00BFF2;}
	.st6{fill:url(#SVGID_00000181083294712897616230000015902595497327846533_);}
	.st7{fill-rule:evenodd;clip-rule:evenodd;fill:url(#SVGID_00000183938026999841174990000006124811660232542108_);}
	.st8{fill-rule:evenodd;clip-rule:evenodd;fill:#FFFFFF;}
	.st9{fill:url(#SVGID_00000002375668767098805760000003482784047061759420_);}
	.st10{fill:#323330;}
	.st11{fill:url(#SVGID_00000172442224031463278130000010975514402505732753_);}
	.st12{fill:#A5F3FC;}
</style>
<g>
	<g>
		<linearGradient id="SVGID_1_" gradientUnits="userSpaceOnUse" x1="4.1005" y1="23.8995" x2="23.8995" y2="4.1005">
			<stop  offset="0" style="stop-color:#FF7FCD"/>
			<stop  offset="1" style="stop-color:#000000"/>
		</linearGradient>
		<circle class="st0" cx="14" cy="14" r="14"/>
	</g>
	<g>
		<circle class="st5" cx="14" cy="13.98" r="1.7"/>
		<g>
			<path class="st5" d="M14,17.87c-2.38,0-4.47-0.28-6.03-0.82c-1.01-0.34-1.87-0.8-2.48-1.33c-0.65-0.55-0.99-1.16-0.99-1.75
				c0-1.12,1.23-2.22,3.3-2.94c1.69-0.59,3.9-0.92,6.2-0.92c2.27,0,4.44,0.32,6.12,0.9c0.98,0.34,1.81,0.78,2.4,1.26
				c0.64,0.53,0.98,1.12,0.98,1.69c0,1.17-1.38,2.35-3.6,3.08C18.34,17.58,16.24,17.87,14,17.87z M14,10.94
				c-2.19,0-4.35,0.32-5.94,0.87c-1.9,0.66-2.75,1.57-2.75,2.17c0,0.63,0.92,1.62,2.93,2.31c1.47,0.5,3.47,0.77,5.76,0.77
				c2.15,0,4.16-0.27,5.65-0.77c2.09-0.69,3.04-1.68,3.04-2.31c0-0.32-0.24-0.7-0.69-1.07c-0.51-0.43-1.25-0.82-2.14-1.12
				C18.26,11.24,16.18,10.94,14,10.94z"/>
		</g>
		<g>
			<path class="st5" d="M10.15,22.44c-0.34,0-0.65-0.07-0.91-0.22c-0.97-0.56-1.31-2.18-0.9-4.33c0.33-1.76,1.15-3.83,2.31-5.83
				c1.13-1.96,2.49-3.69,3.84-4.85c0.78-0.68,1.58-1.18,2.3-1.45c0.78-0.29,1.46-0.29,1.95,0c1.01,0.58,1.35,2.37,0.87,4.65
				c-0.33,1.62-1.13,3.58-2.25,5.52c-1.19,2.06-2.48,3.73-3.72,4.81c-0.8,0.7-1.63,1.22-2.39,1.48
				C10.85,22.37,10.48,22.44,10.15,22.44z M11,12.27l0.35,0.2c-1.09,1.89-1.9,3.93-2.21,5.58c-0.38,1.98-0.01,3.17,0.51,3.47
				c0.13,0.07,0.3,0.11,0.5,0.11c0.67,0,1.73-0.43,2.96-1.49c1.17-1.02,2.4-2.62,3.55-4.61c1.08-1.86,1.84-3.74,2.16-5.28
				c0.44-2.15,0.06-3.47-0.48-3.79c-0.28-0.16-0.73-0.14-1.27,0.06c-0.63,0.23-1.33,0.68-2.04,1.3c-1.28,1.11-2.58,2.76-3.67,4.65
				L11,12.27z"/>
		</g>
		<g>
			<path class="st5" d="M17.86,22.45c-0.92,0-2.09-0.55-3.3-1.6c-1.36-1.17-2.74-2.91-3.9-4.91l0,0c-1.14-1.96-1.95-4-2.29-5.75
				c-0.2-1.02-0.24-1.96-0.11-2.71C8.4,6.66,8.73,6.07,9.23,5.78c1.01-0.59,2.72,0.02,4.47,1.57c1.24,1.1,2.54,2.77,3.66,4.7
				c1.19,2.06,2,4.01,2.31,5.62c0.21,1.05,0.24,2.02,0.09,2.81c-0.16,0.84-0.51,1.44-1.01,1.73C18.49,22.38,18.19,22.45,17.86,22.45
				z M11.36,15.53c1.1,1.89,2.46,3.61,3.73,4.7c1.53,1.31,2.74,1.6,3.26,1.29c0.54-0.31,0.94-1.6,0.53-3.69
				c-0.3-1.53-1.07-3.39-2.22-5.37c-1.08-1.86-2.32-3.46-3.49-4.5c-1.64-1.46-2.98-1.79-3.52-1.47C9.36,6.65,9.15,7.05,9.06,7.62
				c-0.11,0.66-0.08,1.49,0.1,2.42C9.49,11.69,10.26,13.65,11.36,15.53L11.36,15.53z"/>
		</g>
	</g>
</g>
</svg>
