<?xml version="1.0" encoding="utf-8"?>
<!-- Generator: Adobe Illustrator 28.4.1, SVG Export Plug-In . SVG Version: 6.00 Build 0)  -->
<svg version="1.1" id="Layer_1" xmlns="http://www.w3.org/2000/svg" xmlns:xlink="http://www.w3.org/1999/xlink" x="0px" y="0px"
	 viewBox="0 0 28 28" style="enable-background:new 0 0 28 28;" xml:space="preserve">
<style type="text/css">
	.st0{fill:url(#SVGID_1_);}
	.st1{fill:#A38B00;}
	.st2{fill:#BCAE00;}
	.st3{fill:#FFFFFF;}
	.st4{fill:url(#SVGID_00000041979538661469010690000012909798627373538440_);}
	.st5{fill:#00BFF2;}
	.st6{fill:url(#SVGID_00000176725558538363094090000009742237879139912348_);}
	.st7{fill-rule:evenodd;clip-rule:evenodd;fill:url(#SVGID_00000024683001475790918020000013308734907940840103_);}
	.st8{fill-rule:evenodd;clip-rule:evenodd;fill:#FFFFFF;}
	.st9{fill:url(#SVGID_00000059289746950519548950000014414206945902871479_);}
	.st10{fill:#323330;}
	.st11{fill:url(#SVGID_00000078749755240987666000000007098788713543979911_);}
	.st12{fill:#A5F3FC;}
</style>
<g>
	<g>
		<linearGradient id="SVGID_1_" gradientUnits="userSpaceOnUse" x1="4.1005" y1="23.8995" x2="23.8995" y2="4.1005">
			<stop  offset="0" style="stop-color:#06B6D4"/>
			<stop  offset="1" style="stop-color:#302822"/>
		</linearGradient>
		<circle class="st0" cx="14" cy="14" r="14"/>
	</g>
	<path class="st12" d="M20.5,11.51c-0.75-0.26-1.41-0.72-1.91-1.34C17.48,8.78,15.78,7.98,14,8c-2.45-0.17-4.63,1.57-5,4
		c0.72-1.2,2.13-1.81,3.5-1.49c0.75,0.27,1.41,0.73,1.91,1.35c1.12,1.38,2.81,2.17,4.59,2.14c2.45,0.17,4.63-1.57,5-4
		C23.29,11.22,21.87,11.83,20.5,11.51z M7.5,16.49c0.75,0.26,1.41,0.72,1.91,1.34c1.11,1.39,2.81,2.19,4.59,2.17
		c2.45,0.17,4.63-1.57,5-4c-0.72,1.2-2.13,1.81-3.5,1.49c-0.75-0.27-1.41-0.73-1.91-1.35C12.47,14.76,10.78,13.97,9,14
		c-2.45-0.17-4.63,1.57-5,4C4.71,16.78,6.13,16.17,7.5,16.49z"/>
</g>
</svg>
