<?xml version="1.0" encoding="utf-8"?>
<!-- Generator: Adobe Illustrator 28.4.1, SVG Export Plug-In . SVG Version: 6.00 Build 0)  -->
<svg version="1.1" id="Layer_1" xmlns="http://www.w3.org/2000/svg" xmlns:xlink="http://www.w3.org/1999/xlink" x="0px" y="0px"
	 viewBox="0 0 28 28" style="enable-background:new 0 0 28 28;" xml:space="preserve">
<style type="text/css">
	.st0{fill:url(#SVGID_1_);}
	.st1{fill:#A38B00;}
	.st2{fill:#BCAE00;}
	.st3{fill:#FFFFFF;}
	.st4{fill:url(#SVGID_00000101087167096185310040000014094782922398603185_);}
	.st5{fill:#00BFF2;}
	.st6{fill:url(#SVGID_00000164476342103499877910000010242493972144113536_);}
	.st7{fill-rule:evenodd;clip-rule:evenodd;fill:url(#SVGID_00000051346169294775350950000014414702132994162320_);}
	.st8{fill-rule:evenodd;clip-rule:evenodd;fill:#FFFFFF;}
	.st9{fill:url(#SVGID_00000101067599020773036410000017162274574531564470_);}
	.st10{fill:#323330;}
	.st11{fill:url(#SVGID_00000092420794898172108180000018320122755651806879_);}
	.st12{fill:#A5F3FC;}
</style>
<g>
	<g>
		<linearGradient id="SVGID_1_" gradientUnits="userSpaceOnUse" x1="4.1005" y1="23.8995" x2="23.8995" y2="4.1005">
			<stop  offset="0" style="stop-color:#00BFD4"/>
			<stop  offset="1" style="stop-color:#000000"/>
		</linearGradient>
		<circle class="st0" cx="14" cy="14" r="14"/>
	</g>
	<g>
		<g>
			
				<linearGradient id="SVGID_00000114790833121550020480000010444414179565397889_" gradientUnits="userSpaceOnUse" x1="5.5" y1="14" x2="22.5" y2="14">
				<stop  offset="0" style="stop-color:#3CAADC"/>
				<stop  offset="1" style="stop-color:#000000"/>
			</linearGradient>
			<path style="fill-rule:evenodd;clip-rule:evenodd;fill:url(#SVGID_00000114790833121550020480000010444414179565397889_);" d="
				M22.5,8.65c0-1.74-1.41-3.15-3.15-3.15H8.65C6.91,5.5,5.5,6.91,5.5,8.65v10.7c0,1.74,1.41,3.15,3.15,3.15h10.7
				c1.74,0,3.15-1.41,3.15-3.15V8.65z"/>
		</g>
		<path class="st8" d="M16.03,19.01v1.66c0.27,0.14,0.6,0.24,0.96,0.31c0.37,0.07,0.76,0.1,1.16,0.1s0.76-0.04,1.13-0.11
			c0.37-0.08,0.66-0.2,0.93-0.37c0.27-0.18,0.5-0.4,0.63-0.7c0.13-0.3,0.24-0.63,0.24-1.06c0-0.3-0.05-0.56-0.14-0.8
			c-0.09-0.23-0.22-0.43-0.4-0.6c-0.17-0.18-0.37-0.33-0.6-0.46c-0.23-0.13-0.5-0.27-0.8-0.4c-0.22-0.09-0.4-0.18-0.6-0.26
			c-0.17-0.09-0.32-0.17-0.43-0.26c-0.12-0.09-0.22-0.18-0.28-0.28c-0.07-0.1-0.1-0.21-0.1-0.33c0-0.11,0.03-0.22,0.09-0.31
			c0.06-0.09,0.14-0.17,0.25-0.24c0.11-0.07,0.24-0.12,0.4-0.15c0.16-0.04,0.33-0.05,0.53-0.05c0.14,0,0.29,0.01,0.43,0.03
			c0.15,0.02,0.31,0.05,0.46,0.1c0.16,0.04,0.31,0.1,0.46,0.16c0.15,0.07,0.28,0.14,0.4,0.23v-1.56c-0.25-0.1-0.53-0.17-0.83-0.22
			c-0.3-0.05-0.63-0.07-1.03-0.07s-0.76,0.04-1.13,0.13c-0.37,0.08-0.66,0.22-0.93,0.4c-0.27,0.18-0.46,0.4-0.63,0.7
			c-0.16,0.28-0.23,0.6-0.23,1c0,0.5,0.14,0.93,0.43,1.26c0.29,0.37,0.73,0.63,1.29,0.9c0.23,0.09,0.43,0.19,0.63,0.28
			c0.2,0.09,0.37,0.18,0.5,0.28c0.14,0.1,0.26,0.2,0.33,0.32c0.08,0.11,0.13,0.25,0.13,0.4c0,0.11-0.03,0.21-0.08,0.3
			c-0.05,0.09-0.13,0.17-0.24,0.24c-0.11,0.07-0.24,0.12-0.4,0.16c-0.16,0.04-0.33,0.06-0.56,0.06c-0.37,0-0.73-0.06-1.06-0.19
			c-0.37-0.13-0.7-0.32-1-0.56L16.03,19.01z M13.24,14.93h2.12v-1.36H9.42v1.36h2.12v6.08h1.69V14.93z"/>
	</g>
</g>
</svg>
